<svg xmlns="http://www.w3.org/2000/svg" viewBox="0 0 1200 400" role="img" aria-label="Linea del tiempo: El arco historico: 1936-1973"><rect x="0" y="0" width="1200" height="400" rx="16" fill="#211033"/><text x="90" y="34" fill="#f7f2ff" font-family="system-ui, sans-serif" font-size="17" font-weight="600">El arco historico: 1936-1973</text><rect x="641.4" y="206" width="468.6" height="28" fill="#ffd166" opacity="0.16"/><text x="875.7" y="252" fill="#ffd166" font-family="system-ui, sans-serif" font-size="11" text-anchor="middle" opacity="0.85">Primer verano</text><line x1="90" y1="220" x2="1110" y2="220" stroke="#78419e" stroke-width="2"/><circle cx="90.0" cy="220" r="5" fill="#f04cff"/><line x1="90.0" y1="212" x2="90.0" y2="172.0" stroke="#78419e" stroke-width="1"/><text x="90.0" y="158" fill="#f7f2ff" font-family="system-ui, sans-serif" font-size="13" font-weight="600" text-anchor="middle">1936</text><text x="90.0" y="173" fill="#c8b9d8" font-family="system-ui, sans-serif" font-size="11" text-anchor="middle">Maquina de Turing</text><circle cx="283.0" cy="220" r="5" fill="#f04cff"/><line x1="283.0" y1="228" x2="283.0" y2="268.0" stroke="#78419e" stroke-width="1"/><text x="283.0" y="282" fill="#f7f2ff" font-family="system-ui, sans-serif" font-size="13" font-weight="600" text-anchor="middle">1943</text><text x="283.0" y="297" fill="#c8b9d8" font-family="system-ui, sans-serif" font-size="11" text-anchor="middle">Neurona de McCulloch</text><text x="283.0" y="310" fill="#c8b9d8" font-family="system-ui, sans-serif" font-size="11" text-anchor="middle">y Pitts</text><circle cx="420.8" cy="220" r="5" fill="#f04cff"/><line x1="420.8" y1="212" x2="420.8" y2="126.0" stroke="#78419e" stroke-width="1"/><text x="420.8" y="112" fill="#f7f2ff" font-family="system-ui, sans-serif" font-size="13" font-weight="600" text-anchor="middle">1948</text><text x="420.8" y="127" fill="#c8b9d8" font-family="system-ui, sans-serif" font-size="11" text-anchor="middle">Cibernetica de</text><text x="420.8" y="140" fill="#c8b9d8" font-family="system-ui, sans-serif" font-size="11" text-anchor="middle">Wiener</text><circle cx="475.9" cy="220" r="5" fill="#f04cff"/><line x1="475.9" y1="228" x2="475.9" y2="314.0" stroke="#78419e" stroke-width="1"/><text x="475.9" y="328" fill="#f7f2ff" font-family="system-ui, sans-serif" font-size="13" font-weight="600" text-anchor="middle">1950</text><text x="475.9" y="343" fill="#c8b9d8" font-family="system-ui, sans-serif" font-size="11" text-anchor="middle">Turing y Shannon:</text><text x="475.9" y="356" fill="#c8b9d8" font-family="system-ui, sans-serif" font-size="11" text-anchor="middle">imitacion y ajedrez</text><circle cx="641.4" cy="220" r="5" fill="#f04cff"/><line x1="641.4" y1="212" x2="641.4" y2="172.0" stroke="#78419e" stroke-width="1"/><text x="641.4" y="158" fill="#f7f2ff" font-family="system-ui, sans-serif" font-size="13" font-weight="600" text-anchor="middle">1956</text><text x="641.4" y="173" fill="#c8b9d8" font-family="system-ui, sans-serif" font-size="11" text-anchor="middle">Conferencia de</text><text x="641.4" y="186" fill="#c8b9d8" font-family="system-ui, sans-serif" font-size="11" text-anchor="middle">Dartmouth</text><circle cx="696.5" cy="220" r="5" fill="#f04cff"/><line x1="696.5" y1="228" x2="696.5" y2="268.0" stroke="#78419e" stroke-width="1"/><text x="696.5" y="282" fill="#f7f2ff" font-family="system-ui, sans-serif" font-size="13" font-weight="600" text-anchor="middle">1958</text><text x="696.5" y="297" fill="#c8b9d8" font-family="system-ui, sans-serif" font-size="11" text-anchor="middle">Perceptron de</text><text x="696.5" y="310" fill="#c8b9d8" font-family="system-ui, sans-serif" font-size="11" text-anchor="middle">Rosenblatt</text><circle cx="724.1" cy="220" r="5" fill="#f04cff"/><line x1="724.1" y1="212" x2="724.1" y2="126.0" stroke="#78419e" stroke-width="1"/><text x="724.1" y="112" fill="#f7f2ff" font-family="system-ui, sans-serif" font-size="13" font-weight="600" text-anchor="middle">1959</text><text x="724.1" y="127" fill="#c8b9d8" font-family="system-ui, sans-serif" font-size="11" text-anchor="middle">Samuel y el programa</text><text x="724.1" y="140" fill="#c8b9d8" font-family="system-ui, sans-serif" font-size="11" text-anchor="middle">de damas</text><circle cx="917.0" cy="220" r="5" fill="#f04cff"/><line x1="917.0" y1="228" x2="917.0" y2="314.0" stroke="#78419e" stroke-width="1"/><text x="917.0" y="328" fill="#f7f2ff" font-family="system-ui, sans-serif" font-size="13" font-weight="600" text-anchor="middle">1966</text><text x="917.0" y="343" fill="#c8b9d8" font-family="system-ui, sans-serif" font-size="11" text-anchor="middle">ELIZA de Weizenbaum</text><circle cx="999.7" cy="220" r="5" fill="#f04cff"/><line x1="999.7" y1="212" x2="999.7" y2="172.0" stroke="#78419e" stroke-width="1"/><text x="999.7" y="158" fill="#f7f2ff" font-family="system-ui, sans-serif" font-size="13" font-weight="600" text-anchor="middle">1969</text><text x="999.7" y="173" fill="#c8b9d8" font-family="system-ui, sans-serif" font-size="11" text-anchor="middle">Minsky y Papert:</text><text x="999.7" y="186" fill="#c8b9d8" font-family="system-ui, sans-serif" font-size="11" text-anchor="middle">Perceptrons</text><circle cx="1110.0" cy="220" r="5" fill="#f04cff"/><line x1="1110.0" y1="228" x2="1110.0" y2="268.0" stroke="#78419e" stroke-width="1"/><text x="1110.0" y="282" fill="#f7f2ff" font-family="system-ui, sans-serif" font-size="13" font-weight="600" text-anchor="middle">1973</text><text x="1110.0" y="297" fill="#c8b9d8" font-family="system-ui, sans-serif" font-size="11" text-anchor="middle">Informe Lighthill</text></svg>