<svg xmlns="http://www.w3.org/2000/svg" width="1100" height="620" viewBox="0 0 1100 620" role="img" aria-label="Arbol de las raices de la inteligencia artificial: logica y computabilidad, cibernetica, teoria de juegos, automatas, evolucion y estadistica, confluyendo en un tronco comun"><rect x="0" y="0" width="1100" height="620" rx="16" fill="#211033"/><text x="550.0" y="22" fill="#c8b9d8" font-family="system-ui, sans-serif" font-size="13" text-anchor="middle" opacity="0.85">Seis raices, un tronco</text><path d="M 550 150 C 550 262.0, 95 390.0, 95 470" fill="none" stroke="#55ddff" stroke-width="2.5" opacity="0.75"/><path d="M 550 150 C 550 262.0, 270 390.0, 270 470" fill="none" stroke="#ffd166" stroke-width="2.5" opacity="0.75"/><path d="M 550 150 C 550 262.0, 445 390.0, 445 470" fill="none" stroke="#a8ff5a" stroke-width="2.5" opacity="0.75"/><path d="M 550 150 C 550 262.0, 655 390.0, 655 470" fill="none" stroke="#55ddff" stroke-width="2.5" opacity="0.75"/><path d="M 550 150 C 550 262.0, 830 390.0, 830 470" fill="none" stroke="#ffd166" stroke-width="2.5" opacity="0.75"/><path d="M 550 150 C 550 262.0, 1005 390.0, 1005 470" fill="none" stroke="#a8ff5a" stroke-width="2.5" opacity="0.75"/><line x1="550" y1="100" x2="550" y2="150" stroke="#78419e" stroke-width="3"/><circle cx="550" cy="150" r="6" fill="#f04cff"/><rect x="390.0" y="34" width="320" height="66" rx="12" fill="#f04cff" opacity="0.18" stroke="#f04cff" stroke-width="2"/><text x="550" y="74.0" fill="#f7f2ff" font-family="system-ui, sans-serif" font-size="24" font-weight="700" text-anchor="middle">Inteligencia artificial</text><circle cx="95" cy="470" r="6" fill="#55ddff"/><line x1="95" y1="476" x2="95" y2="490" stroke="#78419e" stroke-width="1"/><text x="95" y="494" fill="#f7f2ff" font-family="system-ui, sans-serif" font-size="14" font-weight="600" text-anchor="middle">Logica y computabilidad</text><text x="95" y="514" fill="#55ddff" font-family="system-ui, sans-serif" font-size="13" font-weight="600" text-anchor="middle">1936</text><text x="95" y="534" fill="#c8b9d8" font-family="system-ui, sans-serif" font-size="12" text-anchor="middle">Turing</text><text x="95" y="550" fill="#c8b9d8" font-family="system-ui, sans-serif" font-size="12" text-anchor="middle">Church</text><text x="95" y="566" fill="#c8b9d8" font-family="system-ui, sans-serif" font-size="12" text-anchor="middle">Godel</text><circle cx="270" cy="470" r="6" fill="#ffd166"/><line x1="270" y1="476" x2="270" y2="490" stroke="#78419e" stroke-width="1"/><text x="270" y="494" fill="#f7f2ff" font-family="system-ui, sans-serif" font-size="14" font-weight="600" text-anchor="middle">Cibernetica</text><text x="270" y="514" fill="#ffd166" font-family="system-ui, sans-serif" font-size="13" font-weight="600" text-anchor="middle">1943</text><text x="270" y="534" fill="#c8b9d8" font-family="system-ui, sans-serif" font-size="12" text-anchor="middle">Wiener</text><text x="270" y="550" fill="#c8b9d8" font-family="system-ui, sans-serif" font-size="12" text-anchor="middle">McCulloch</text><text x="270" y="566" fill="#c8b9d8" font-family="system-ui, sans-serif" font-size="12" text-anchor="middle">Pitts</text><circle cx="445" cy="470" r="6" fill="#a8ff5a"/><line x1="445" y1="476" x2="445" y2="490" stroke="#78419e" stroke-width="1"/><text x="445" y="494" fill="#f7f2ff" font-family="system-ui, sans-serif" font-size="14" font-weight="600" text-anchor="middle">Teoria de juegos</text><text x="445" y="514" fill="#a8ff5a" font-family="system-ui, sans-serif" font-size="13" font-weight="600" text-anchor="middle">1928</text><text x="445" y="534" fill="#c8b9d8" font-family="system-ui, sans-serif" font-size="12" text-anchor="middle">Von Neumann</text><text x="445" y="550" fill="#c8b9d8" font-family="system-ui, sans-serif" font-size="12" text-anchor="middle">Nash</text><circle cx="655" cy="470" r="6" fill="#55ddff"/><line x1="655" y1="476" x2="655" y2="490" stroke="#78419e" stroke-width="1"/><text x="655" y="494" fill="#f7f2ff" font-family="system-ui, sans-serif" font-size="14" font-weight="600" text-anchor="middle">Automatas</text><text x="655" y="514" fill="#55ddff" font-family="system-ui, sans-serif" font-size="13" font-weight="600" text-anchor="middle">1950</text><text x="655" y="534" fill="#c8b9d8" font-family="system-ui, sans-serif" font-size="12" text-anchor="middle">Von Neumann</text><text x="655" y="550" fill="#c8b9d8" font-family="system-ui, sans-serif" font-size="12" text-anchor="middle">Ulam</text><text x="655" y="566" fill="#c8b9d8" font-family="system-ui, sans-serif" font-size="12" text-anchor="middle">Conway</text><circle cx="830" cy="470" r="6" fill="#ffd166"/><line x1="830" y1="476" x2="830" y2="490" stroke="#78419e" stroke-width="1"/><text x="830" y="494" fill="#f7f2ff" font-family="system-ui, sans-serif" font-size="14" font-weight="600" text-anchor="middle">Evolucion</text><text x="830" y="514" fill="#ffd166" font-family="system-ui, sans-serif" font-size="13" font-weight="600" text-anchor="middle">1953</text><text x="830" y="534" fill="#c8b9d8" font-family="system-ui, sans-serif" font-size="12" text-anchor="middle">Barricelli</text><text x="830" y="550" fill="#c8b9d8" font-family="system-ui, sans-serif" font-size="12" text-anchor="middle">Holland</text><circle cx="1005" cy="470" r="6" fill="#a8ff5a"/><line x1="1005" y1="476" x2="1005" y2="490" stroke="#78419e" stroke-width="1"/><text x="1005" y="494" fill="#f7f2ff" font-family="system-ui, sans-serif" font-size="14" font-weight="600" text-anchor="middle">Estadistica</text><text x="1005" y="514" fill="#a8ff5a" font-family="system-ui, sans-serif" font-size="13" font-weight="600" text-anchor="middle">1763</text><text x="1005" y="534" fill="#c8b9d8" font-family="system-ui, sans-serif" font-size="12" text-anchor="middle">Bayes</text><text x="1005" y="550" fill="#c8b9d8" font-family="system-ui, sans-serif" font-size="12" text-anchor="middle">Fisher</text><text x="1005" y="566" fill="#c8b9d8" font-family="system-ui, sans-serif" font-size="12" text-anchor="middle">Pearson</text></svg>