<svg xmlns="http://www.w3.org/2000/svg" width="600" height="700" viewBox="0 0 600 700" role="img" aria-label="La posición de la clase arriba, donde mueve Blancas. Sus tres jugadas llevan a nodos de corte, con borde punteado porque ahí la búsqueda se detiene: a1-a2 da EVAL = +2; d2-d3 da EVAL = +2; d2xc3 da EVAL = +13. Blancas toma el máximo, +13: la captura, resaltada."><title>Profundidad 1: mirar una jugada y evaluar</title><desc>La posición de la clase arriba, donde mueve Blancas. Sus tres jugadas llevan a nodos de corte, con borde punteado porque ahí la búsqueda se detiene: a1-a2 da EVAL = +2; d2-d3 da EVAL = +2; d2xc3 da EVAL = +13. Blancas toma el máximo, +13: la captura, resaltada.</desc><rect x="0" y="0" width="600" height="700" rx="16" fill="#211033"/><defs><marker id="p" viewBox="0 0 10 10" refX="9" refY="5" markerWidth="6" markerHeight="6" orient="auto-start-reverse"><path d="M 0 0 L 10 5 L 0 10 z" fill="#f04cff"/></marker><marker id="s" viewBox="0 0 10 10" refX="9" refY="5" markerWidth="6" markerHeight="6" orient="auto-start-reverse"><path d="M 0 0 L 10 5 L 0 10 z" fill="#c8b9d8"/></marker></defs><text x="20" y="34" fill="#f7f2ff" font-family="system-ui, sans-serif" font-size="20" font-weight="700" text-anchor="start">Profundidad 1:</text><text x="20" y="59" fill="#f7f2ff" font-family="system-ui, sans-serif" font-size="17" font-weight="700" text-anchor="start">mirar una jugada y evaluar</text><line x1="300.0" y1="270.0" x2="110.0" y2="377.0" stroke="#c8b9d8" stroke-width="2" marker-end="url(#s)"/><rect x="175.0" y="310.5" width="60" height="25" rx="7" fill="#211033" stroke="#c8b9d8" stroke-width="1.5"/><text x="205.0" y="328.5" fill="#c8b9d8" font-family="ui-monospace, SFMono-Regular, Menlo, monospace" font-size="15" font-weight="700" text-anchor="middle">a1-a2</text><line x1="300.0" y1="270.0" x2="300.0" y2="377.0" stroke="#c8b9d8" stroke-width="2" marker-end="url(#s)"/><rect x="270.0" y="310.5" width="60" height="25" rx="7" fill="#211033" stroke="#c8b9d8" stroke-width="1.5"/><text x="300.0" y="328.5" fill="#c8b9d8" font-family="ui-monospace, SFMono-Regular, Menlo, monospace" font-size="15" font-weight="700" text-anchor="middle">d2-d3</text><line x1="300.0" y1="270.0" x2="490.0" y2="377.0" stroke="#f04cff" stroke-width="3" marker-end="url(#p)"/><rect x="365.0" y="310.5" width="60" height="25" rx="7" fill="#211033" stroke="#f04cff" stroke-width="1.5"/><text x="395.0" y="328.5" fill="#f04cff" font-family="ui-monospace, SFMono-Regular, Menlo, monospace" font-size="15" font-weight="700" text-anchor="middle">d2xc3</text><rect x="200.0" y="100.0" width="200" height="170" rx="10" fill="#251e41" stroke="#55ddff" stroke-width="2"/><text x="300.0" y="124.2" fill="#f7f2ff" font-family="system-ui, sans-serif" font-size="17.6" font-weight="700" text-anchor="middle">La posición</text><rect x="262.0" y="135.2" width="76" height="76" rx="3" fill="#3f2158" stroke="#c8b9d8" stroke-width="1"/><line x1="281.0" y1="135.2" x2="281.0" y2="211.2" stroke="#c8b9d8" stroke-width="1"/><line x1="262.0" y1="154.2" x2="338.0" y2="154.2" stroke="#c8b9d8" stroke-width="1"/><line x1="300.0" y1="135.2" x2="300.0" y2="211.2" stroke="#c8b9d8" stroke-width="1"/><line x1="262.0" y1="173.2" x2="338.0" y2="173.2" stroke="#c8b9d8" stroke-width="1"/><line x1="319.0" y1="135.2" x2="319.0" y2="211.2" stroke="#c8b9d8" stroke-width="1"/><line x1="262.0" y1="192.2" x2="338.0" y2="192.2" stroke="#c8b9d8" stroke-width="1"/><circle cx="271.5" cy="201.7" r="8.0" fill="#f7f2ff"/><text x="271.5" y="205.8" fill="#211033" font-family="system-ui, sans-serif" font-size="11.4" font-weight="700" text-anchor="middle">B</text><circle cx="309.5" cy="182.7" r="8.0" fill="#f7f2ff"/><text x="309.5" y="186.8" fill="#211033" font-family="system-ui, sans-serif" font-size="11.4" font-weight="700" text-anchor="middle">B</text><circle cx="328.5" cy="182.7" r="8.0" fill="#f7f2ff"/><text x="328.5" y="186.8" fill="#211033" font-family="system-ui, sans-serif" font-size="11.4" font-weight="700" text-anchor="middle">B</text><circle cx="309.5" cy="163.7" r="8.0" fill="#211033" stroke="#f7f2ff" stroke-width="2"/><text x="309.5" y="167.8" fill="#f7f2ff" font-family="system-ui, sans-serif" font-size="11.4" font-weight="700" text-anchor="middle">N</text><circle cx="271.5" cy="144.7" r="8.0" fill="#211033" stroke="#f7f2ff" stroke-width="2"/><text x="271.5" y="148.8" fill="#f7f2ff" font-family="system-ui, sans-serif" font-size="11.4" font-weight="700" text-anchor="middle">N</text><circle cx="290.5" cy="144.7" r="8.0" fill="#211033" stroke="#f7f2ff" stroke-width="2"/><text x="290.5" y="148.8" fill="#f7f2ff" font-family="system-ui, sans-serif" font-size="11.4" font-weight="700" text-anchor="middle">N</text><text x="300.0" y="240.3" fill="#55ddff" font-family="system-ui, sans-serif" font-size="14.3" font-weight="700" text-anchor="middle">Mueve Blancas · MAX</text><text x="300.0" y="259.0" fill="#55ddff" font-family="system-ui, sans-serif" font-size="14.3" font-weight="700" text-anchor="middle">con corte: +13</text><rect x="35.0" y="385.0" width="150" height="170" rx="10" fill="#311e37" stroke="#ffd166" stroke-width="2" stroke-dasharray="8 5"/><text x="110.0" y="407.0" fill="#f7f2ff" font-family="system-ui, sans-serif" font-size="16.0" font-weight="700" text-anchor="middle">a1-a2</text><rect x="72.0" y="417.0" width="76" height="76" rx="3" fill="#3f2158" stroke="#c8b9d8" stroke-width="1"/><line x1="91.0" y1="417.0" x2="91.0" y2="493.0" stroke="#c8b9d8" stroke-width="1"/><line x1="72.0" y1="436.0" x2="148.0" y2="436.0" stroke="#c8b9d8" stroke-width="1"/><line x1="110.0" y1="417.0" x2="110.0" y2="493.0" stroke="#c8b9d8" stroke-width="1"/><line x1="72.0" y1="455.0" x2="148.0" y2="455.0" stroke="#c8b9d8" stroke-width="1"/><line x1="129.0" y1="417.0" x2="129.0" y2="493.0" stroke="#c8b9d8" stroke-width="1"/><line x1="72.0" y1="474.0" x2="148.0" y2="474.0" stroke="#c8b9d8" stroke-width="1"/><circle cx="81.5" cy="464.5" r="8.0" fill="#f7f2ff"/><text x="81.5" y="468.6" fill="#211033" font-family="system-ui, sans-serif" font-size="11.4" font-weight="700" text-anchor="middle">B</text><circle cx="119.5" cy="464.5" r="8.0" fill="#f7f2ff"/><text x="119.5" y="468.6" fill="#211033" font-family="system-ui, sans-serif" font-size="11.4" font-weight="700" text-anchor="middle">B</text><circle cx="138.5" cy="464.5" r="8.0" fill="#f7f2ff"/><text x="138.5" y="468.6" fill="#211033" font-family="system-ui, sans-serif" font-size="11.4" font-weight="700" text-anchor="middle">B</text><circle cx="119.5" cy="445.5" r="8.0" fill="#211033" stroke="#f7f2ff" stroke-width="2"/><text x="119.5" y="449.6" fill="#f7f2ff" font-family="system-ui, sans-serif" font-size="11.4" font-weight="700" text-anchor="middle">N</text><circle cx="81.5" cy="426.5" r="8.0" fill="#211033" stroke="#f7f2ff" stroke-width="2"/><text x="81.5" y="430.6" fill="#f7f2ff" font-family="system-ui, sans-serif" font-size="11.4" font-weight="700" text-anchor="middle">N</text><circle cx="100.5" cy="426.5" r="8.0" fill="#211033" stroke="#f7f2ff" stroke-width="2"/><text x="100.5" y="430.6" fill="#f7f2ff" font-family="system-ui, sans-serif" font-size="11.4" font-weight="700" text-anchor="middle">N</text><text x="110.0" y="528.0" fill="#ffd166" font-family="system-ui, sans-serif" font-size="13.0" font-weight="700" text-anchor="middle">Nodo de corte</text><text x="110.0" y="545.0" fill="#ffd166" font-family="system-ui, sans-serif" font-size="13.0" font-weight="700" text-anchor="middle">EVAL = +2</text><rect x="225.0" y="385.0" width="150" height="170" rx="10" fill="#311e37" stroke="#ffd166" stroke-width="2" stroke-dasharray="8 5"/><text x="300.0" y="407.0" fill="#f7f2ff" font-family="system-ui, sans-serif" font-size="16.0" font-weight="700" text-anchor="middle">d2-d3</text><rect x="262.0" y="417.0" width="76" height="76" rx="3" fill="#3f2158" stroke="#c8b9d8" stroke-width="1"/><line x1="281.0" y1="417.0" x2="281.0" y2="493.0" stroke="#c8b9d8" stroke-width="1"/><line x1="262.0" y1="436.0" x2="338.0" y2="436.0" stroke="#c8b9d8" stroke-width="1"/><line x1="300.0" y1="417.0" x2="300.0" y2="493.0" stroke="#c8b9d8" stroke-width="1"/><line x1="262.0" y1="455.0" x2="338.0" y2="455.0" stroke="#c8b9d8" stroke-width="1"/><line x1="319.0" y1="417.0" x2="319.0" y2="493.0" stroke="#c8b9d8" stroke-width="1"/><line x1="262.0" y1="474.0" x2="338.0" y2="474.0" stroke="#c8b9d8" stroke-width="1"/><circle cx="271.5" cy="483.5" r="8.0" fill="#f7f2ff"/><text x="271.5" y="487.6" fill="#211033" font-family="system-ui, sans-serif" font-size="11.4" font-weight="700" text-anchor="middle">B</text><circle cx="309.5" cy="464.5" r="8.0" fill="#f7f2ff"/><text x="309.5" y="468.6" fill="#211033" font-family="system-ui, sans-serif" font-size="11.4" font-weight="700" text-anchor="middle">B</text><circle cx="309.5" cy="445.5" r="8.0" fill="#211033" stroke="#f7f2ff" stroke-width="2"/><text x="309.5" y="449.6" fill="#f7f2ff" font-family="system-ui, sans-serif" font-size="11.4" font-weight="700" text-anchor="middle">N</text><circle cx="328.5" cy="445.5" r="8.0" fill="#f7f2ff"/><text x="328.5" y="449.6" fill="#211033" font-family="system-ui, sans-serif" font-size="11.4" font-weight="700" text-anchor="middle">B</text><circle cx="271.5" cy="426.5" r="8.0" fill="#211033" stroke="#f7f2ff" stroke-width="2"/><text x="271.5" y="430.6" fill="#f7f2ff" font-family="system-ui, sans-serif" font-size="11.4" font-weight="700" text-anchor="middle">N</text><circle cx="290.5" cy="426.5" r="8.0" fill="#211033" stroke="#f7f2ff" stroke-width="2"/><text x="290.5" y="430.6" fill="#f7f2ff" font-family="system-ui, sans-serif" font-size="11.4" font-weight="700" text-anchor="middle">N</text><text x="300.0" y="528.0" fill="#ffd166" font-family="system-ui, sans-serif" font-size="13.0" font-weight="700" text-anchor="middle">Nodo de corte</text><text x="300.0" y="545.0" fill="#ffd166" font-family="system-ui, sans-serif" font-size="13.0" font-weight="700" text-anchor="middle">EVAL = +2</text><rect x="415.0" y="385.0" width="150" height="170" rx="10" fill="#452f3b" stroke="#f04cff" stroke-width="3.5" stroke-dasharray="8 5"/><text x="490.0" y="407.0" fill="#f7f2ff" font-family="system-ui, sans-serif" font-size="16.0" font-weight="700" text-anchor="middle">d2xc3</text><rect x="452.0" y="417.0" width="76" height="76" rx="3" fill="#3f2158" stroke="#c8b9d8" stroke-width="1"/><line x1="471.0" y1="417.0" x2="471.0" y2="493.0" stroke="#c8b9d8" stroke-width="1"/><line x1="452.0" y1="436.0" x2="528.0" y2="436.0" stroke="#c8b9d8" stroke-width="1"/><line x1="490.0" y1="417.0" x2="490.0" y2="493.0" stroke="#c8b9d8" stroke-width="1"/><line x1="452.0" y1="455.0" x2="528.0" y2="455.0" stroke="#c8b9d8" stroke-width="1"/><line x1="509.0" y1="417.0" x2="509.0" y2="493.0" stroke="#c8b9d8" stroke-width="1"/><line x1="452.0" y1="474.0" x2="528.0" y2="474.0" stroke="#c8b9d8" stroke-width="1"/><circle cx="461.5" cy="483.5" r="8.0" fill="#f7f2ff"/><text x="461.5" y="487.6" fill="#211033" font-family="system-ui, sans-serif" font-size="11.4" font-weight="700" text-anchor="middle">B</text><circle cx="499.5" cy="464.5" r="8.0" fill="#f7f2ff"/><text x="499.5" y="468.6" fill="#211033" font-family="system-ui, sans-serif" font-size="11.4" font-weight="700" text-anchor="middle">B</text><circle cx="499.5" cy="445.5" r="8.0" fill="#f7f2ff"/><text x="499.5" y="449.6" fill="#211033" font-family="system-ui, sans-serif" font-size="11.4" font-weight="700" text-anchor="middle">B</text><circle cx="461.5" cy="426.5" r="8.0" fill="#211033" stroke="#f7f2ff" stroke-width="2"/><text x="461.5" y="430.6" fill="#f7f2ff" font-family="system-ui, sans-serif" font-size="11.4" font-weight="700" text-anchor="middle">N</text><circle cx="480.5" cy="426.5" r="8.0" fill="#211033" stroke="#f7f2ff" stroke-width="2"/><text x="480.5" y="430.6" fill="#f7f2ff" font-family="system-ui, sans-serif" font-size="11.4" font-weight="700" text-anchor="middle">N</text><text x="490.0" y="528.0" fill="#ffd166" font-family="system-ui, sans-serif" font-size="13.0" font-weight="700" text-anchor="middle">Nodo de corte</text><text x="490.0" y="545.0" fill="#ffd166" font-family="system-ui, sans-serif" font-size="13.0" font-weight="700" text-anchor="middle">EVAL = +13</text><text x="20" y="602" fill="#f7f2ff" font-family="system-ui, sans-serif" font-size="15" font-weight="normal" text-anchor="start">d = 1 en la raíz: tras la jugada de</text><text x="20" y="624" fill="#f7f2ff" font-family="system-ui, sans-serif" font-size="15" font-weight="normal" text-anchor="start">Blancas queda d = 0, y la búsqueda</text><text x="20" y="646" fill="#f7f2ff" font-family="system-ui, sans-serif" font-size="15" font-weight="normal" text-anchor="start">estima con EVAL en vez de seguir.</text></svg>