<svg xmlns="http://www.w3.org/2000/svg" width="700" height="640" viewBox="0 0 700 640" role="img" aria-label="El árbol C, de tres niveles y 15 nodos. La raíz es de MAX y tiene dos hijos de MIN. El MIN izquierdo tiene dos hijos de MAX, con hojas 3 y 5 el primero, y 6 y 9 el segundo. El MIN derecho tiene dos hijos de MAX, con hojas 2 y 4 el primero, y 7 y 1 el segundo. Sin marcas: es el enunciado del ejercicio."><title>El árbol C</title><desc>El árbol C, de tres niveles y 15 nodos. La raíz es de MAX y tiene dos hijos de MIN. El MIN izquierdo tiene dos hijos de MAX, con hojas 3 y 5 el primero, y 6 y 9 el segundo. El MIN derecho tiene dos hijos de MAX, con hojas 2 y 4 el primero, y 7 y 1 el segundo. Sin marcas: es el enunciado del ejercicio.</desc><rect x="0" y="0" width="700" height="640" rx="16" fill="#211033"/><defs><marker id="p" viewBox="0 0 10 10" refX="9" refY="5" markerWidth="6" markerHeight="6" orient="auto-start-reverse"><path d="M 0 0 L 10 5 L 0 10 z" fill="#f04cff"/></marker><marker id="s" viewBox="0 0 10 10" refX="9" refY="5" markerWidth="6" markerHeight="6" orient="auto-start-reverse"><path d="M 0 0 L 10 5 L 0 10 z" fill="#c8b9d8"/></marker></defs><text x="350.0" y="44" fill="#f7f2ff" font-family="system-ui, sans-serif" font-size="26" font-weight="700" text-anchor="middle">El árbol C</text><line x1="350.0" y1="159.0" x2="190.0" y2="233.0" stroke="#c8b9d8" stroke-width="2" marker-end="url(#s)"/><line x1="190.0" y1="299.0" x2="110.0" y2="373.0" stroke="#c8b9d8" stroke-width="2" marker-end="url(#s)"/><line x1="110.0" y1="439.0" x2="70" y2="502" stroke="#c8b9d8" stroke-width="2" marker-end="url(#s)"/><line x1="110.0" y1="439.0" x2="150" y2="502" stroke="#c8b9d8" stroke-width="2" marker-end="url(#s)"/><line x1="190.0" y1="299.0" x2="270.0" y2="373.0" stroke="#c8b9d8" stroke-width="2" marker-end="url(#s)"/><line x1="270.0" y1="439.0" x2="230" y2="502" stroke="#c8b9d8" stroke-width="2" marker-end="url(#s)"/><line x1="270.0" y1="439.0" x2="310" y2="502" stroke="#c8b9d8" stroke-width="2" marker-end="url(#s)"/><line x1="350.0" y1="159.0" x2="510.0" y2="233.0" stroke="#c8b9d8" stroke-width="2" marker-end="url(#s)"/><line x1="510.0" y1="299.0" x2="430.0" y2="373.0" stroke="#c8b9d8" stroke-width="2" marker-end="url(#s)"/><line x1="430.0" y1="439.0" x2="390" y2="502" stroke="#c8b9d8" stroke-width="2" marker-end="url(#s)"/><line x1="430.0" y1="439.0" x2="470" y2="502" stroke="#c8b9d8" stroke-width="2" marker-end="url(#s)"/><line x1="510.0" y1="299.0" x2="590.0" y2="373.0" stroke="#c8b9d8" stroke-width="2" marker-end="url(#s)"/><line x1="590.0" y1="439.0" x2="550" y2="502" stroke="#c8b9d8" stroke-width="2" marker-end="url(#s)"/><line x1="590.0" y1="439.0" x2="630" y2="502" stroke="#c8b9d8" stroke-width="2" marker-end="url(#s)"/><rect x="290.0" y="101.0" width="120" height="58" rx="10" fill="#251e41" stroke="#55ddff" stroke-width="2"/><text x="350.0" y="139" fill="#55ddff" font-family="system-ui, sans-serif" font-size="26" font-weight="700" text-anchor="middle">MAX</text><rect x="130.0" y="241.0" width="120" height="58" rx="10" fill="#311e37" stroke="#ffd166" stroke-width="2"/><text x="190.0" y="279" fill="#ffd166" font-family="system-ui, sans-serif" font-size="26" font-weight="700" text-anchor="middle">MIN</text><rect x="450.0" y="241.0" width="120" height="58" rx="10" fill="#311e37" stroke="#ffd166" stroke-width="2"/><text x="510.0" y="279" fill="#ffd166" font-family="system-ui, sans-serif" font-size="26" font-weight="700" text-anchor="middle">MIN</text><rect x="50.0" y="381.0" width="120" height="58" rx="10" fill="#251e41" stroke="#55ddff" stroke-width="2"/><text x="110.0" y="419" fill="#55ddff" font-family="system-ui, sans-serif" font-size="26" font-weight="700" text-anchor="middle">MAX</text><rect x="210.0" y="381.0" width="120" height="58" rx="10" fill="#251e41" stroke="#55ddff" stroke-width="2"/><text x="270.0" y="419" fill="#55ddff" font-family="system-ui, sans-serif" font-size="26" font-weight="700" text-anchor="middle">MAX</text><rect x="370.0" y="381.0" width="120" height="58" rx="10" fill="#251e41" stroke="#55ddff" stroke-width="2"/><text x="430.0" y="419" fill="#55ddff" font-family="system-ui, sans-serif" font-size="26" font-weight="700" text-anchor="middle">MAX</text><rect x="530.0" y="381.0" width="120" height="58" rx="10" fill="#251e41" stroke="#55ddff" stroke-width="2"/><text x="590.0" y="419" fill="#55ddff" font-family="system-ui, sans-serif" font-size="26" font-weight="700" text-anchor="middle">MAX</text><circle cx="70" cy="545" r="35" fill="none" stroke="#a8ff5a" stroke-width="1.5"/><circle cx="70" cy="545" r="30" fill="#2a2136" stroke="#a8ff5a" stroke-width="2"/><text x="70" y="554" fill="#f7f2ff" font-family="system-ui, sans-serif" font-size="26" font-weight="700" text-anchor="middle">3</text><circle cx="150" cy="545" r="35" fill="none" stroke="#a8ff5a" stroke-width="1.5"/><circle cx="150" cy="545" r="30" fill="#2a2136" stroke="#a8ff5a" stroke-width="2"/><text x="150" y="554" fill="#f7f2ff" font-family="system-ui, sans-serif" font-size="26" font-weight="700" text-anchor="middle">5</text><circle cx="230" cy="545" r="35" fill="none" stroke="#a8ff5a" stroke-width="1.5"/><circle cx="230" cy="545" r="30" fill="#2a2136" stroke="#a8ff5a" stroke-width="2"/><text x="230" y="554" fill="#f7f2ff" font-family="system-ui, sans-serif" font-size="26" font-weight="700" text-anchor="middle">6</text><circle cx="310" cy="545" r="35" fill="none" stroke="#a8ff5a" stroke-width="1.5"/><circle cx="310" cy="545" r="30" fill="#2a2136" stroke="#a8ff5a" stroke-width="2"/><text x="310" y="554" fill="#f7f2ff" font-family="system-ui, sans-serif" font-size="26" font-weight="700" text-anchor="middle">9</text><circle cx="390" cy="545" r="35" fill="none" stroke="#a8ff5a" stroke-width="1.5"/><circle cx="390" cy="545" r="30" fill="#2a2136" stroke="#a8ff5a" stroke-width="2"/><text x="390" y="554" fill="#f7f2ff" font-family="system-ui, sans-serif" font-size="26" font-weight="700" text-anchor="middle">2</text><circle cx="470" cy="545" r="35" fill="none" stroke="#a8ff5a" stroke-width="1.5"/><circle cx="470" cy="545" r="30" fill="#2a2136" stroke="#a8ff5a" stroke-width="2"/><text x="470" y="554" fill="#f7f2ff" font-family="system-ui, sans-serif" font-size="26" font-weight="700" text-anchor="middle">4</text><circle cx="550" cy="545" r="35" fill="none" stroke="#a8ff5a" stroke-width="1.5"/><circle cx="550" cy="545" r="30" fill="#2a2136" stroke="#a8ff5a" stroke-width="2"/><text x="550" y="554" fill="#f7f2ff" font-family="system-ui, sans-serif" font-size="26" font-weight="700" text-anchor="middle">7</text><circle cx="630" cy="545" r="35" fill="none" stroke="#a8ff5a" stroke-width="1.5"/><circle cx="630" cy="545" r="30" fill="#2a2136" stroke="#a8ff5a" stroke-width="2"/><text x="630" y="554" fill="#f7f2ff" font-family="system-ui, sans-serif" font-size="26" font-weight="700" text-anchor="middle">1</text><text x="350.0" y="610" fill="#c8b9d8" font-family="system-ui, sans-serif" font-size="22" font-weight="normal" text-anchor="middle">Las hojas, de izquierda a derecha, en el orden dado.</text></svg>