<svg xmlns="http://www.w3.org/2000/svg" width="700" height="1465" viewBox="0 0 700 1465" role="img" aria-label="El subgrafo de n1 en el momento en que MINIMAX empieza a valorar n8. En memoria solo está el camino n1, n3, n6, n7, n8, cada uno esperando a sus hijos con el mejor valor visto hasta ahora. n2 y n4 ya devolvieron +1 y se olvidaron, con n5. n9, n10, n11, n12 y n13 todavía no se generan."><title>MINIMAX a media ejecución</title><desc>El subgrafo de n1 en el momento en que MINIMAX empieza a valorar n8. En memoria solo está el camino n1, n3, n6, n7, n8, cada uno esperando a sus hijos con el mejor valor visto hasta ahora. n2 y n4 ya devolvieron +1 y se olvidaron, con n5. n9, n10, n11, n12 y n13 todavía no se generan.</desc><rect x="0" y="0" width="700" height="1465" rx="16" fill="#211033"/><defs><marker id="p" viewBox="0 0 10 10" refX="9" refY="5" markerWidth="6" markerHeight="6" orient="auto-start-reverse"><path d="M 0 0 L 10 5 L 0 10 z" fill="#f04cff"/></marker><marker id="s" viewBox="0 0 10 10" refX="9" refY="5" markerWidth="6" markerHeight="6" orient="auto-start-reverse"><path d="M 0 0 L 10 5 L 0 10 z" fill="#c8b9d8"/></marker></defs><text x="350.0" y="36" fill="#f7f2ff" font-family="system-ui, sans-serif" font-size="20" font-weight="700" text-anchor="middle">MINIMAX a media ejecución</text><text x="350.0" y="70" fill="#c8b9d8" font-family="system-ui, sans-serif" font-size="15" font-weight="normal" text-anchor="middle">Empieza MINIMAX(n8). ¿Qué hay en memoria?</text><line x1="350" y1="248.0" x2="130" y2="330.0" stroke="#78419e" stroke-width="1.5" stroke-dasharray="4 6"/><line x1="350" y1="248.0" x2="420" y2="322.0" stroke="#f04cff" stroke-width="3" marker-end="url(#p)"/><rect x="350.5" y="271.0" width="69" height="26" rx="7" fill="#211033" stroke="#f04cff" stroke-width="1.5"/><text x="385.0" y="290.0" fill="#f04cff" font-family="ui-monospace, SFMono-Regular, Menlo, monospace" font-size="15" font-weight="700" text-anchor="middle">c1xb2</text><line x1="420" y1="476.0" x2="100" y2="558.0" stroke="#78419e" stroke-width="1.5" stroke-dasharray="4 6"/><line x1="100" y1="704.0" x2="100" y2="786.0" stroke="#78419e" stroke-width="1.5" stroke-dasharray="4 6"/><line x1="420" y1="476.0" x2="390" y2="550.0" stroke="#f04cff" stroke-width="3" marker-end="url(#p)"/><rect x="370.5" y="499.0" width="69" height="26" rx="7" fill="#211033" stroke="#f04cff" stroke-width="1.5"/><text x="405.0" y="518.0" fill="#f04cff" font-family="ui-monospace, SFMono-Regular, Menlo, monospace" font-size="15" font-weight="700" text-anchor="middle">c3-c2</text><line x1="390" y1="704.0" x2="250" y2="778.0" stroke="#f04cff" stroke-width="3" marker-end="url(#p)"/><rect x="285.5" y="727.0" width="69" height="26" rx="7" fill="#211033" stroke="#f04cff" stroke-width="1.5"/><text x="320.0" y="746.0" fill="#f04cff" font-family="ui-monospace, SFMono-Regular, Menlo, monospace" font-size="15" font-weight="700" text-anchor="middle">b1xc2</text><line x1="250" y1="932.0" x2="250" y2="1006.0" stroke="#f04cff" stroke-width="3" marker-end="url(#p)"/><rect x="215.5" y="955.0" width="69" height="26" rx="7" fill="#211033" stroke="#f04cff" stroke-width="1.5"/><text x="250.0" y="974.0" fill="#f04cff" font-family="ui-monospace, SFMono-Regular, Menlo, monospace" font-size="15" font-weight="700" text-anchor="middle">a3xb2</text><line x1="250" y1="1160.0" x2="175" y2="1242.0" stroke="#78419e" stroke-width="1.5" stroke-dasharray="4 6"/><line x1="250" y1="1160.0" x2="325" y2="1242.0" stroke="#78419e" stroke-width="1.5" stroke-dasharray="4 6"/><line x1="390" y1="704.0" x2="400" y2="786.0" stroke="#78419e" stroke-width="1.5" stroke-dasharray="4 6"/><line x1="390" y1="704.0" x2="550" y2="786.0" stroke="#78419e" stroke-width="1.5" stroke-dasharray="4 6"/><line x1="420" y1="476.0" x2="610" y2="558.0" stroke="#78419e" stroke-width="1.5" stroke-dasharray="4 6"/><rect x="284.0" y="102.0" width="132" height="146" rx="10" fill="#293154" stroke="#f04cff" stroke-width="3.5"/><text x="350" y="121.36" fill="#f7f2ff" font-family="system-ui, sans-serif" font-size="14.1" font-weight="700" text-anchor="middle">n1</text><rect x="318.5" y="130.16" width="63" height="63" rx="3" fill="#3f2158" stroke="#c8b9d8" stroke-width="1"/><line x1="339.5" y1="130.16" x2="339.5" y2="193.16" stroke="#c8b9d8" stroke-width="1"/><line x1="318.5" y1="151.16" x2="381.5" y2="151.16" stroke="#c8b9d8" stroke-width="1"/><line x1="360.5" y1="130.16" x2="360.5" y2="193.16" stroke="#c8b9d8" stroke-width="1"/><line x1="318.5" y1="172.16" x2="381.5" y2="172.16" stroke="#c8b9d8" stroke-width="1"/><circle cx="350.0" cy="182.7" r="8.8" fill="#f7f2ff"/><text x="350.0" y="187.2" fill="#211033" font-family="system-ui, sans-serif" font-size="12.6" font-weight="700" text-anchor="middle">B</text><circle cx="371.0" cy="182.7" r="8.8" fill="#f7f2ff"/><text x="371.0" y="187.2" fill="#211033" font-family="system-ui, sans-serif" font-size="12.6" font-weight="700" text-anchor="middle">B</text><circle cx="329.0" cy="161.7" r="8.8" fill="#f7f2ff"/><text x="329.0" y="166.2" fill="#211033" font-family="system-ui, sans-serif" font-size="12.6" font-weight="700" text-anchor="middle">B</text><circle cx="350.0" cy="161.7" r="8.8" fill="#211033" stroke="#f7f2ff" stroke-width="2"/><text x="350.0" y="166.2" fill="#f7f2ff" font-family="system-ui, sans-serif" font-size="12.6" font-weight="700" text-anchor="middle">N</text><circle cx="329.0" cy="140.7" r="8.8" fill="#211033" stroke="#f7f2ff" stroke-width="2"/><text x="329.0" y="145.2" fill="#f7f2ff" font-family="system-ui, sans-serif" font-size="12.6" font-weight="700" text-anchor="middle">N</text><circle cx="371.0" cy="140.7" r="8.8" fill="#211033" stroke="#f7f2ff" stroke-width="2"/><text x="371.0" y="145.2" fill="#f7f2ff" font-family="system-ui, sans-serif" font-size="12.6" font-weight="700" text-anchor="middle">N</text><text x="350" y="224.24" fill="#55ddff" font-family="system-ui, sans-serif" font-size="11.4" font-weight="700" text-anchor="middle">MAX · espera</text><text x="350" y="239.2" fill="#55ddff" font-family="system-ui, sans-serif" font-size="11.4" font-weight="700" text-anchor="middle">v = +1</text><rect x="64.0" y="330.0" width="132" height="146" rx="10" fill="#211033" stroke="#c8b9d8" stroke-width="1.5" stroke-dasharray="2 5"/><text x="130" y="371" fill="#c8b9d8" font-family="system-ui, sans-serif" font-size="16" font-weight="700" text-anchor="middle">n2</text><text x="130" y="405" fill="#c8b9d8" font-family="system-ui, sans-serif" font-size="14" font-weight="700" text-anchor="middle">devolvió +1</text><text x="130" y="429" fill="#c8b9d8" font-family="system-ui, sans-serif" font-size="14" font-weight="normal" text-anchor="middle">y se olvidó</text><rect x="354.0" y="330.0" width="132" height="146" rx="10" fill="#452f3b" stroke="#f04cff" stroke-width="3.5"/><text x="420" y="349.36" fill="#f7f2ff" font-family="system-ui, sans-serif" font-size="14.1" font-weight="700" text-anchor="middle">n3</text><rect x="388.5" y="358.16" width="63" height="63" rx="3" fill="#3f2158" stroke="#c8b9d8" stroke-width="1"/><line x1="409.5" y1="358.16" x2="409.5" y2="421.16" stroke="#c8b9d8" stroke-width="1"/><line x1="388.5" y1="379.16" x2="451.5" y2="379.16" stroke="#c8b9d8" stroke-width="1"/><line x1="430.5" y1="358.16" x2="430.5" y2="421.16" stroke="#c8b9d8" stroke-width="1"/><line x1="388.5" y1="400.16" x2="451.5" y2="400.16" stroke="#c8b9d8" stroke-width="1"/><circle cx="420.0" cy="410.7" r="8.8" fill="#f7f2ff"/><text x="420.0" y="415.2" fill="#211033" font-family="system-ui, sans-serif" font-size="12.6" font-weight="700" text-anchor="middle">B</text><circle cx="399.0" cy="389.7" r="8.8" fill="#f7f2ff"/><text x="399.0" y="394.2" fill="#211033" font-family="system-ui, sans-serif" font-size="12.6" font-weight="700" text-anchor="middle">B</text><circle cx="420.0" cy="389.7" r="8.8" fill="#f7f2ff"/><text x="420.0" y="394.2" fill="#211033" font-family="system-ui, sans-serif" font-size="12.6" font-weight="700" text-anchor="middle">B</text><circle cx="399.0" cy="368.7" r="8.8" fill="#211033" stroke="#f7f2ff" stroke-width="2"/><text x="399.0" y="373.2" fill="#f7f2ff" font-family="system-ui, sans-serif" font-size="12.6" font-weight="700" text-anchor="middle">N</text><circle cx="441.0" cy="368.7" r="8.8" fill="#211033" stroke="#f7f2ff" stroke-width="2"/><text x="441.0" y="373.2" fill="#f7f2ff" font-family="system-ui, sans-serif" font-size="12.6" font-weight="700" text-anchor="middle">N</text><text x="420" y="452.24" fill="#ffd166" font-family="system-ui, sans-serif" font-size="11.4" font-weight="700" text-anchor="middle">MIN · espera</text><text x="420" y="467.2" fill="#ffd166" font-family="system-ui, sans-serif" font-size="11.4" font-weight="700" text-anchor="middle">v = +1</text><rect x="34.0" y="558.0" width="132" height="146" rx="10" fill="#211033" stroke="#c8b9d8" stroke-width="1.5" stroke-dasharray="2 5"/><text x="100" y="599" fill="#c8b9d8" font-family="system-ui, sans-serif" font-size="16" font-weight="700" text-anchor="middle">n4</text><text x="100" y="633" fill="#c8b9d8" font-family="system-ui, sans-serif" font-size="14" font-weight="700" text-anchor="middle">devolvió +1</text><text x="100" y="657" fill="#c8b9d8" font-family="system-ui, sans-serif" font-size="14" font-weight="normal" text-anchor="middle">y se olvidó</text><rect x="34.0" y="786.0" width="132" height="146" rx="10" fill="#211033" stroke="#c8b9d8" stroke-width="1.5" stroke-dasharray="2 5"/><text x="100" y="827" fill="#c8b9d8" font-family="system-ui, sans-serif" font-size="16" font-weight="700" text-anchor="middle">n5</text><text x="100" y="861" fill="#c8b9d8" font-family="system-ui, sans-serif" font-size="14" font-weight="700" text-anchor="middle">devolvió +1</text><text x="100" y="885" fill="#c8b9d8" font-family="system-ui, sans-serif" font-size="14" font-weight="normal" text-anchor="middle">y se olvidó</text><rect x="324.0" y="558.0" width="132" height="146" rx="10" fill="#293154" stroke="#f04cff" stroke-width="3.5"/><text x="390" y="577.36" fill="#f7f2ff" font-family="system-ui, sans-serif" font-size="14.1" font-weight="700" text-anchor="middle">n6</text><rect x="358.5" y="586.16" width="63" height="63" rx="3" fill="#3f2158" stroke="#c8b9d8" stroke-width="1"/><line x1="379.5" y1="586.16" x2="379.5" y2="649.16" stroke="#c8b9d8" stroke-width="1"/><line x1="358.5" y1="607.16" x2="421.5" y2="607.16" stroke="#c8b9d8" stroke-width="1"/><line x1="400.5" y1="586.16" x2="400.5" y2="649.16" stroke="#c8b9d8" stroke-width="1"/><line x1="358.5" y1="628.16" x2="421.5" y2="628.16" stroke="#c8b9d8" stroke-width="1"/><circle cx="390.0" cy="638.7" r="8.8" fill="#f7f2ff"/><text x="390.0" y="643.2" fill="#211033" font-family="system-ui, sans-serif" font-size="12.6" font-weight="700" text-anchor="middle">B</text><circle cx="369.0" cy="617.7" r="8.8" fill="#f7f2ff"/><text x="369.0" y="622.2" fill="#211033" font-family="system-ui, sans-serif" font-size="12.6" font-weight="700" text-anchor="middle">B</text><circle cx="390.0" cy="617.7" r="8.8" fill="#f7f2ff"/><text x="390.0" y="622.2" fill="#211033" font-family="system-ui, sans-serif" font-size="12.6" font-weight="700" text-anchor="middle">B</text><circle cx="411.0" cy="617.7" r="8.8" fill="#211033" stroke="#f7f2ff" stroke-width="2"/><text x="411.0" y="622.2" fill="#f7f2ff" font-family="system-ui, sans-serif" font-size="12.6" font-weight="700" text-anchor="middle">N</text><circle cx="369.0" cy="596.7" r="8.8" fill="#211033" stroke="#f7f2ff" stroke-width="2"/><text x="369.0" y="601.2" fill="#f7f2ff" font-family="system-ui, sans-serif" font-size="12.6" font-weight="700" text-anchor="middle">N</text><text x="390" y="680.24" fill="#55ddff" font-family="system-ui, sans-serif" font-size="11.4" font-weight="700" text-anchor="middle">MAX · espera</text><text x="390" y="695.2" fill="#55ddff" font-family="system-ui, sans-serif" font-size="11.4" font-weight="700" text-anchor="middle">v = −∞</text><rect x="184.0" y="786.0" width="132" height="146" rx="10" fill="#452f3b" stroke="#f04cff" stroke-width="3.5"/><text x="250" y="805.36" fill="#f7f2ff" font-family="system-ui, sans-serif" font-size="14.1" font-weight="700" text-anchor="middle">n7</text><rect x="218.5" y="814.16" width="63" height="63" rx="3" fill="#3f2158" stroke="#c8b9d8" stroke-width="1"/><line x1="239.5" y1="814.16" x2="239.5" y2="877.16" stroke="#c8b9d8" stroke-width="1"/><line x1="218.5" y1="835.16" x2="281.5" y2="835.16" stroke="#c8b9d8" stroke-width="1"/><line x1="260.5" y1="814.16" x2="260.5" y2="877.16" stroke="#c8b9d8" stroke-width="1"/><line x1="218.5" y1="856.16" x2="281.5" y2="856.16" stroke="#c8b9d8" stroke-width="1"/><circle cx="229.0" cy="845.7" r="8.8" fill="#f7f2ff"/><text x="229.0" y="850.2" fill="#211033" font-family="system-ui, sans-serif" font-size="12.6" font-weight="700" text-anchor="middle">B</text><circle cx="250.0" cy="845.7" r="8.8" fill="#f7f2ff"/><text x="250.0" y="850.2" fill="#211033" font-family="system-ui, sans-serif" font-size="12.6" font-weight="700" text-anchor="middle">B</text><circle cx="271.0" cy="845.7" r="8.8" fill="#f7f2ff"/><text x="271.0" y="850.2" fill="#211033" font-family="system-ui, sans-serif" font-size="12.6" font-weight="700" text-anchor="middle">B</text><circle cx="229.0" cy="824.7" r="8.8" fill="#211033" stroke="#f7f2ff" stroke-width="2"/><text x="229.0" y="829.2" fill="#f7f2ff" font-family="system-ui, sans-serif" font-size="12.6" font-weight="700" text-anchor="middle">N</text><text x="250" y="908.24" fill="#ffd166" font-family="system-ui, sans-serif" font-size="11.4" font-weight="700" text-anchor="middle">MIN · espera</text><text x="250" y="923.2" fill="#ffd166" font-family="system-ui, sans-serif" font-size="11.4" font-weight="700" text-anchor="middle">v = +∞</text><rect x="184.0" y="1014.0" width="132" height="146" rx="10" fill="#293154" stroke="#f04cff" stroke-width="3.5"/><text x="250" y="1033.36" fill="#f7f2ff" font-family="system-ui, sans-serif" font-size="14.1" font-weight="700" text-anchor="middle">n8</text><rect x="218.5" y="1042.16" width="63" height="63" rx="3" fill="#3f2158" stroke="#c8b9d8" stroke-width="1"/><line x1="239.5" y1="1042.16" x2="239.5" y2="1105.16" stroke="#c8b9d8" stroke-width="1"/><line x1="218.5" y1="1063.16" x2="281.5" y2="1063.16" stroke="#c8b9d8" stroke-width="1"/><line x1="260.5" y1="1042.16" x2="260.5" y2="1105.16" stroke="#c8b9d8" stroke-width="1"/><line x1="218.5" y1="1084.16" x2="281.5" y2="1084.16" stroke="#c8b9d8" stroke-width="1"/><circle cx="229.0" cy="1073.7" r="8.8" fill="#f7f2ff"/><text x="229.0" y="1078.2" fill="#211033" font-family="system-ui, sans-serif" font-size="12.6" font-weight="700" text-anchor="middle">B</text><circle cx="250.0" cy="1073.7" r="8.8" fill="#211033" stroke="#f7f2ff" stroke-width="2"/><text x="250.0" y="1078.2" fill="#f7f2ff" font-family="system-ui, sans-serif" font-size="12.6" font-weight="700" text-anchor="middle">N</text><circle cx="271.0" cy="1073.7" r="8.8" fill="#f7f2ff"/><text x="271.0" y="1078.2" fill="#211033" font-family="system-ui, sans-serif" font-size="12.6" font-weight="700" text-anchor="middle">B</text><text x="250" y="1136.24" fill="#55ddff" font-family="system-ui, sans-serif" font-size="11.4" font-weight="700" text-anchor="middle">MAX · espera</text><text x="250" y="1151.2" fill="#55ddff" font-family="system-ui, sans-serif" font-size="11.4" font-weight="700" text-anchor="middle">v = −∞</text><rect x="109.0" y="1242.0" width="132" height="146" rx="10" fill="#211033" stroke="#78419e" stroke-width="2" stroke-dasharray="7 6"/><text x="175" y="1283" fill="#c8b9d8" font-family="system-ui, sans-serif" font-size="16" font-weight="700" text-anchor="middle">n9</text><text x="175" y="1321" fill="#78419e" font-family="system-ui, sans-serif" font-size="30" font-weight="700" text-anchor="middle">?</text><text x="175" y="1359" fill="#c8b9d8" font-family="system-ui, sans-serif" font-size="13" font-weight="normal" text-anchor="middle">aún no existe</text><rect x="259.0" y="1242.0" width="132" height="146" rx="10" fill="#211033" stroke="#78419e" stroke-width="2" stroke-dasharray="7 6"/><text x="325" y="1283" fill="#c8b9d8" font-family="system-ui, sans-serif" font-size="16" font-weight="700" text-anchor="middle">n10</text><text x="325" y="1321" fill="#78419e" font-family="system-ui, sans-serif" font-size="30" font-weight="700" text-anchor="middle">?</text><text x="325" y="1359" fill="#c8b9d8" font-family="system-ui, sans-serif" font-size="13" font-weight="normal" text-anchor="middle">aún no existe</text><rect x="334.0" y="786.0" width="132" height="146" rx="10" fill="#211033" stroke="#78419e" stroke-width="2" stroke-dasharray="7 6"/><text x="400" y="827" fill="#c8b9d8" font-family="system-ui, sans-serif" font-size="16" font-weight="700" text-anchor="middle">n11</text><text x="400" y="865" fill="#78419e" font-family="system-ui, sans-serif" font-size="30" font-weight="700" text-anchor="middle">?</text><text x="400" y="903" fill="#c8b9d8" font-family="system-ui, sans-serif" font-size="13" font-weight="normal" text-anchor="middle">aún no existe</text><rect x="484.0" y="786.0" width="132" height="146" rx="10" fill="#211033" stroke="#78419e" stroke-width="2" stroke-dasharray="7 6"/><text x="550" y="827" fill="#c8b9d8" font-family="system-ui, sans-serif" font-size="16" font-weight="700" text-anchor="middle">n12</text><text x="550" y="865" fill="#78419e" font-family="system-ui, sans-serif" font-size="30" font-weight="700" text-anchor="middle">?</text><text x="550" y="903" fill="#c8b9d8" font-family="system-ui, sans-serif" font-size="13" font-weight="normal" text-anchor="middle">aún no existe</text><rect x="544.0" y="558.0" width="132" height="146" rx="10" fill="#211033" stroke="#78419e" stroke-width="2" stroke-dasharray="7 6"/><text x="610" y="599" fill="#c8b9d8" font-family="system-ui, sans-serif" font-size="16" font-weight="700" text-anchor="middle">n13</text><text x="610" y="637" fill="#78419e" font-family="system-ui, sans-serif" font-size="30" font-weight="700" text-anchor="middle">?</text><text x="610" y="675" fill="#c8b9d8" font-family="system-ui, sans-serif" font-size="13" font-weight="normal" text-anchor="middle">aún no existe</text><rect x="18" y="1431" width="24" height="16" rx="4" fill="none" stroke="#f04cff" stroke-width="3"/><text x="52" y="1444" fill="#c8b9d8" font-family="system-ui, sans-serif" font-size="13" font-weight="normal" text-anchor="start">en la pila: esperan</text><rect x="250" y="1431" width="24" height="16" rx="4" fill="none" stroke="#c8b9d8" stroke-width="1.5" stroke-dasharray="2 4"/><text x="284" y="1444" fill="#c8b9d8" font-family="system-ui, sans-serif" font-size="13" font-weight="normal" text-anchor="start">devolvió y se olvidó</text><rect x="480" y="1431" width="24" height="16" rx="4" fill="none" stroke="#78419e" stroke-width="2" stroke-dasharray="5 3"/><text x="514" y="1444" fill="#c8b9d8" font-family="system-ui, sans-serif" font-size="13" font-weight="normal" text-anchor="start">todavía no se genera</text></svg>