<svg xmlns="http://www.w3.org/2000/svg" width="600" height="792" viewBox="0 0 600 792" role="img" aria-label="Paso 2 · Valorar n3: Negras toma el mínimo. Arriba, n3, donde mueve Negras (MIN); abajo, sus hijos con su valor: a3xb2 lleva a n4, que vale +1; c3-c2 lleva a n6, que vale +1; c3xb2 lleva a n13, que vale −1. El mínimo es −1, así que V(n3) = −1; las jugadas que lo alcanzan van resaltadas."><title>Paso 2 · Valorar n3: Negras toma el mínimo</title><desc>Paso 2 · Valorar n3: Negras toma el mínimo. Arriba, n3, donde mueve Negras (MIN); abajo, sus hijos con su valor: a3xb2 lleva a n4, que vale +1; c3-c2 lleva a n6, que vale +1; c3xb2 lleva a n13, que vale −1. El mínimo es −1, así que V(n3) = −1; las jugadas que lo alcanzan van resaltadas.</desc><rect x="0" y="0" width="600" height="792" rx="16" fill="#211033"/><defs><marker id="p" viewBox="0 0 10 10" refX="9" refY="5" markerWidth="6" markerHeight="6" orient="auto-start-reverse"><path d="M 0 0 L 10 5 L 0 10 z" fill="#f04cff"/></marker><marker id="s" viewBox="0 0 10 10" refX="9" refY="5" markerWidth="6" markerHeight="6" orient="auto-start-reverse"><path d="M 0 0 L 10 5 L 0 10 z" fill="#c8b9d8"/></marker></defs><text x="20" y="34" fill="#f7f2ff" font-family="system-ui, sans-serif" font-size="20" font-weight="700" text-anchor="start">Paso 2 · Valorar n3:</text><text x="20" y="59" fill="#f7f2ff" font-family="system-ui, sans-serif" font-size="17" font-weight="700" text-anchor="start">Negras toma el mínimo</text><text x="20" y="85" fill="#c8b9d8" font-family="system-ui, sans-serif" font-size="14" font-weight="normal" text-anchor="start">Camino desde s₀: a1-a2, b3-b2, c1xb2</text><line x1="300.0" y1="331.0" x2="100.0" y2="433.0" stroke="#c8b9d8" stroke-width="2" marker-end="url(#s)"/><rect x="170.0" y="369.0" width="60" height="25" rx="7" fill="#211033" stroke="#c8b9d8" stroke-width="1.5"/><text x="200.0" y="387.0" fill="#c8b9d8" font-family="ui-monospace, SFMono-Regular, Menlo, monospace" font-size="15" font-weight="700" text-anchor="middle">a3xb2</text><line x1="300.0" y1="331.0" x2="300.0" y2="433.0" stroke="#c8b9d8" stroke-width="2" marker-end="url(#s)"/><rect x="270.0" y="369.0" width="60" height="25" rx="7" fill="#211033" stroke="#c8b9d8" stroke-width="1.5"/><text x="300.0" y="387.0" fill="#c8b9d8" font-family="ui-monospace, SFMono-Regular, Menlo, monospace" font-size="15" font-weight="700" text-anchor="middle">c3-c2</text><line x1="300.0" y1="331.0" x2="500.0" y2="433.0" stroke="#f04cff" stroke-width="3" marker-end="url(#p)"/><rect x="370.0" y="369.0" width="60" height="25" rx="7" fill="#211033" stroke="#f04cff" stroke-width="1.5"/><text x="400.0" y="387.0" fill="#f04cff" font-family="ui-monospace, SFMono-Regular, Menlo, monospace" font-size="15" font-weight="700" text-anchor="middle">c3xb2</text><rect x="210.0" y="141.0" width="180" height="190" rx="10" fill="#452f3b" stroke="#f04cff" stroke-width="3.5"/><text x="300.0" y="167.4" fill="#f7f2ff" font-family="system-ui, sans-serif" font-size="19.2" font-weight="700" text-anchor="middle">n3</text><rect x="252.0" y="179.4" width="96" height="96" rx="3" fill="#3f2158" stroke="#c8b9d8" stroke-width="1"/><line x1="284.0" y1="179.4" x2="284.0" y2="275.4" stroke="#c8b9d8" stroke-width="1"/><line x1="252.0" y1="211.4" x2="348.0" y2="211.4" stroke="#c8b9d8" stroke-width="1"/><line x1="316.0" y1="179.4" x2="316.0" y2="275.4" stroke="#c8b9d8" stroke-width="1"/><line x1="252.0" y1="243.4" x2="348.0" y2="243.4" stroke="#c8b9d8" stroke-width="1"/><circle cx="300.0" cy="259.4" r="13.4" fill="#f7f2ff"/><text x="300.0" y="266.3" fill="#211033" font-family="system-ui, sans-serif" font-size="19.2" font-weight="700" text-anchor="middle">B</text><circle cx="268.0" cy="227.4" r="13.4" fill="#f7f2ff"/><text x="268.0" y="234.3" fill="#211033" font-family="system-ui, sans-serif" font-size="19.2" font-weight="700" text-anchor="middle">B</text><circle cx="300.0" cy="227.4" r="13.4" fill="#f7f2ff"/><text x="300.0" y="234.3" fill="#211033" font-family="system-ui, sans-serif" font-size="19.2" font-weight="700" text-anchor="middle">B</text><circle cx="268.0" cy="195.4" r="13.4" fill="#211033" stroke="#f7f2ff" stroke-width="2"/><text x="268.0" y="202.3" fill="#f7f2ff" font-family="system-ui, sans-serif" font-size="19.2" font-weight="700" text-anchor="middle">N</text><circle cx="332.0" cy="195.4" r="13.4" fill="#211033" stroke="#f7f2ff" stroke-width="2"/><text x="332.0" y="202.3" fill="#f7f2ff" font-family="system-ui, sans-serif" font-size="19.2" font-weight="700" text-anchor="middle">N</text><text x="300.0" y="298.6" fill="#ffd166" font-family="system-ui, sans-serif" font-size="15.6" font-weight="700" text-anchor="middle">Mueve Negras</text><text x="300.0" y="319.0" fill="#ffd166" font-family="system-ui, sans-serif" font-size="15.6" font-weight="700" text-anchor="middle">MIN · V = −1</text><rect x="10.0" y="441.0" width="180" height="190" rx="10" fill="#251e41" stroke="#55ddff" stroke-width="2"/><text x="100.0" y="467.4" fill="#f7f2ff" font-family="system-ui, sans-serif" font-size="19.2" font-weight="700" text-anchor="middle">n4</text><rect x="52.0" y="479.4" width="96" height="96" rx="3" fill="#3f2158" stroke="#c8b9d8" stroke-width="1"/><line x1="84.0" y1="479.4" x2="84.0" y2="575.4" stroke="#c8b9d8" stroke-width="1"/><line x1="52.0" y1="511.4" x2="148.0" y2="511.4" stroke="#c8b9d8" stroke-width="1"/><line x1="116.0" y1="479.4" x2="116.0" y2="575.4" stroke="#c8b9d8" stroke-width="1"/><line x1="52.0" y1="543.4" x2="148.0" y2="543.4" stroke="#c8b9d8" stroke-width="1"/><circle cx="100.0" cy="559.4" r="13.4" fill="#f7f2ff"/><text x="100.0" y="566.3" fill="#211033" font-family="system-ui, sans-serif" font-size="19.2" font-weight="700" text-anchor="middle">B</text><circle cx="68.0" cy="527.4" r="13.4" fill="#f7f2ff"/><text x="68.0" y="534.3" fill="#211033" font-family="system-ui, sans-serif" font-size="19.2" font-weight="700" text-anchor="middle">B</text><circle cx="100.0" cy="527.4" r="13.4" fill="#211033" stroke="#f7f2ff" stroke-width="2"/><text x="100.0" y="534.3" fill="#f7f2ff" font-family="system-ui, sans-serif" font-size="19.2" font-weight="700" text-anchor="middle">N</text><circle cx="132.0" cy="495.4" r="13.4" fill="#211033" stroke="#f7f2ff" stroke-width="2"/><text x="132.0" y="502.3" fill="#f7f2ff" font-family="system-ui, sans-serif" font-size="19.2" font-weight="700" text-anchor="middle">N</text><text x="100.0" y="598.6" fill="#55ddff" font-family="system-ui, sans-serif" font-size="15.6" font-weight="700" text-anchor="middle">Mueve Blancas</text><text x="100.0" y="619.0" fill="#55ddff" font-family="system-ui, sans-serif" font-size="15.6" font-weight="700" text-anchor="middle">MAX · V = +1</text><rect x="210.0" y="441.0" width="180" height="190" rx="10" fill="#251e41" stroke="#55ddff" stroke-width="2"/><text x="300.0" y="467.4" fill="#f7f2ff" font-family="system-ui, sans-serif" font-size="19.2" font-weight="700" text-anchor="middle">n6</text><rect x="252.0" y="479.4" width="96" height="96" rx="3" fill="#3f2158" stroke="#c8b9d8" stroke-width="1"/><line x1="284.0" y1="479.4" x2="284.0" y2="575.4" stroke="#c8b9d8" stroke-width="1"/><line x1="252.0" y1="511.4" x2="348.0" y2="511.4" stroke="#c8b9d8" stroke-width="1"/><line x1="316.0" y1="479.4" x2="316.0" y2="575.4" stroke="#c8b9d8" stroke-width="1"/><line x1="252.0" y1="543.4" x2="348.0" y2="543.4" stroke="#c8b9d8" stroke-width="1"/><circle cx="300.0" cy="559.4" r="13.4" fill="#f7f2ff"/><text x="300.0" y="566.3" fill="#211033" font-family="system-ui, sans-serif" font-size="19.2" font-weight="700" text-anchor="middle">B</text><circle cx="268.0" cy="527.4" r="13.4" fill="#f7f2ff"/><text x="268.0" y="534.3" fill="#211033" font-family="system-ui, sans-serif" font-size="19.2" font-weight="700" text-anchor="middle">B</text><circle cx="300.0" cy="527.4" r="13.4" fill="#f7f2ff"/><text x="300.0" y="534.3" fill="#211033" font-family="system-ui, sans-serif" font-size="19.2" font-weight="700" text-anchor="middle">B</text><circle cx="332.0" cy="527.4" r="13.4" fill="#211033" stroke="#f7f2ff" stroke-width="2"/><text x="332.0" y="534.3" fill="#f7f2ff" font-family="system-ui, sans-serif" font-size="19.2" font-weight="700" text-anchor="middle">N</text><circle cx="268.0" cy="495.4" r="13.4" fill="#211033" stroke="#f7f2ff" stroke-width="2"/><text x="268.0" y="502.3" fill="#f7f2ff" font-family="system-ui, sans-serif" font-size="19.2" font-weight="700" text-anchor="middle">N</text><text x="300.0" y="598.6" fill="#55ddff" font-family="system-ui, sans-serif" font-size="15.6" font-weight="700" text-anchor="middle">Mueve Blancas</text><text x="300.0" y="619.0" fill="#55ddff" font-family="system-ui, sans-serif" font-size="15.6" font-weight="700" text-anchor="middle">MAX · V = +1</text><rect x="405.0" y="436.0" width="190" height="200" rx="10" fill="none" stroke="#a8ff5a" stroke-width="2"/><rect x="410.0" y="441.0" width="180" height="190" rx="10" fill="#2a2136" stroke="#a8ff5a" stroke-width="2"/><text x="500.0" y="467.4" fill="#f7f2ff" font-family="system-ui, sans-serif" font-size="19.2" font-weight="700" text-anchor="middle">n13</text><rect x="452.0" y="479.4" width="96" height="96" rx="3" fill="#3f2158" stroke="#c8b9d8" stroke-width="1"/><line x1="484.0" y1="479.4" x2="484.0" y2="575.4" stroke="#c8b9d8" stroke-width="1"/><line x1="452.0" y1="511.4" x2="548.0" y2="511.4" stroke="#c8b9d8" stroke-width="1"/><line x1="516.0" y1="479.4" x2="516.0" y2="575.4" stroke="#c8b9d8" stroke-width="1"/><line x1="452.0" y1="543.4" x2="548.0" y2="543.4" stroke="#c8b9d8" stroke-width="1"/><circle cx="500.0" cy="559.4" r="13.4" fill="#f7f2ff"/><text x="500.0" y="566.3" fill="#211033" font-family="system-ui, sans-serif" font-size="19.2" font-weight="700" text-anchor="middle">B</text><circle cx="468.0" cy="527.4" r="13.4" fill="#f7f2ff"/><text x="468.0" y="534.3" fill="#211033" font-family="system-ui, sans-serif" font-size="19.2" font-weight="700" text-anchor="middle">B</text><circle cx="500.0" cy="527.4" r="13.4" fill="#211033" stroke="#f7f2ff" stroke-width="2"/><text x="500.0" y="534.3" fill="#f7f2ff" font-family="system-ui, sans-serif" font-size="19.2" font-weight="700" text-anchor="middle">N</text><circle cx="468.0" cy="495.4" r="13.4" fill="#211033" stroke="#f7f2ff" stroke-width="2"/><text x="468.0" y="502.3" fill="#f7f2ff" font-family="system-ui, sans-serif" font-size="19.2" font-weight="700" text-anchor="middle">N</text><text x="500.0" y="598.6" fill="#a8ff5a" font-family="system-ui, sans-serif" font-size="15.6" font-weight="700" text-anchor="middle">Fin: gana Negras</text><text x="500.0" y="619.0" fill="#a8ff5a" font-family="system-ui, sans-serif" font-size="15.6" font-weight="700" text-anchor="middle">U = −1</text><text x="20" y="676" fill="#f7f2ff" font-family="system-ui, sans-serif" font-size="15" font-weight="normal" text-anchor="start">min{+1, +1, −1} = −1. A Negras le basta</text><text x="20" y="698" fill="#f7f2ff" font-family="system-ui, sans-serif" font-size="15" font-weight="normal" text-anchor="start">una respuesta buena: c3xb2 deja</text><text x="20" y="720" fill="#f7f2ff" font-family="system-ui, sans-serif" font-size="15" font-weight="normal" text-anchor="start">a Blancas sin jugada.</text><rect x="20" y="758" width="24" height="16" rx="4" fill="none" stroke="#f04cff" stroke-width="3"/><text x="54" y="771" fill="#c8b9d8" font-family="system-ui, sans-serif" font-size="13" font-weight="normal" text-anchor="start">se valora en este paso</text><rect x="257.32000000000005" y="758" width="24" height="16" rx="4" fill="none" stroke="#c8b9d8" stroke-width="2"/><text x="291.32000000000005" y="771" fill="#c8b9d8" font-family="system-ui, sans-serif" font-size="13" font-weight="normal" text-anchor="start">ya valorado</text><rect x="402.9800000000001" y="755" width="30" height="22" rx="5" fill="none" stroke="#a8ff5a" stroke-width="1.5"/><rect x="405.9800000000001" y="758" width="24" height="16" rx="4" fill="none" stroke="#a8ff5a" stroke-width="1.5"/><text x="439.9800000000001" y="771" fill="#c8b9d8" font-family="system-ui, sans-serif" font-size="13" font-weight="normal" text-anchor="start">final, con su U</text></svg>